<svg width="331" height="287" viewBox="0 0 331 287" fill="none" xmlns="http://www.w3.org/2000/svg">
<g style="mix-blend-mode:hard-light" filter="url(#filter0_d)">
<line x1="165" y1="42.9829" x2="169" y2="276.983" stroke="#174B62" stroke-opacity="0.26" stroke-width="2"/>
</g>
<g style="mix-blend-mode:hard-light" filter="url(#filter1_d)">
<path d="M165 41C155.8 34.3264 146.47 28.7624 136.181 23.9787C132.635 22.3297 129.231 21.2467 125.473 20.1489C120.651 18.7403 116.024 16.6824 111.18 15.3735C98.1868 11.8629 85.3369 7.02923 72.072 4.92435C66.1997 3.99253 60.7007 2.2766 54.7062 2.2766C52.9684 2.2766 51.4236 1.42553 49.7711 1.42553C48.8356 1.42553 46.4109 1.8346 46 1" stroke="#174B62" stroke-width="2" stroke-linecap="round" stroke-linejoin="round"/>
</g>
<g style="mix-blend-mode:hard-light" filter="url(#filter2_d)">
<path d="M165 43C174.277 36.1596 183.686 30.4564 194.061 25.5532C197.637 23.863 201.07 22.7529 204.859 21.6277C209.722 20.1838 214.387 18.0745 219.272 16.7329C232.375 13.1344 245.333 8.17996 258.709 6.02246C264.631 5.06735 270.176 3.30851 276.221 3.30851C277.973 3.30851 279.531 2.43617 281.197 2.43617C282.141 2.43617 284.586 2.85547 285 2" stroke="#174B62" stroke-width="2" stroke-linecap="round" stroke-linejoin="round"/>
</g>
<g style="mix-blend-mode:hard-light" filter="url(#filter3_d)">
<path d="M169 277C178.123 272.829 187.375 269.351 197.577 266.362C201.093 265.331 204.469 264.654 208.195 263.968C212.976 263.088 217.564 261.802 222.368 260.983C235.252 258.789 247.994 255.768 261.147 254.453C266.97 253.87 272.423 252.798 278.367 252.798C280.09 252.798 281.622 252.266 283.261 252.266C284.188 252.266 286.593 252.522 287 252" stroke="#174B62" stroke-width="2" stroke-linecap="round" stroke-linejoin="round"/>
</g>
<g style="mix-blend-mode:hard-light" filter="url(#filter4_d)">
<path d="M169 277C159.414 272.829 149.691 269.351 138.97 266.362C135.275 265.331 131.728 264.654 127.812 263.968C122.788 263.088 117.966 261.802 112.919 260.983C99.3796 258.789 85.9897 255.768 72.1674 254.453C66.0484 253.87 60.3184 252.798 54.072 252.798C52.2611 252.798 50.6514 252.266 48.9296 252.266C47.9547 252.266 45.4282 252.522 45 252" stroke="#174B62" stroke-width="2" stroke-linecap="round" stroke-linejoin="round"/>
</g>
<g style="mix-blend-mode:hard-light" filter="url(#filter5_d)">
<path d="M168 277C157.563 273.663 146.978 270.881 135.306 268.489C131.283 267.665 127.421 267.123 123.158 266.574C117.688 265.87 112.439 264.841 106.944 264.187C92.2035 262.431 77.6259 260.015 62.5775 258.962C55.9156 258.496 49.6773 257.638 42.8768 257.638C40.9053 257.638 39.1528 257.213 37.2782 257.213C36.2168 257.213 33.4662 257.417 33 257" stroke="#174B62" stroke-width="2" stroke-linecap="round" stroke-linejoin="round"/>
</g>
<g style="mix-blend-mode:hard-light" filter="url(#filter6_d)">
<path d="M168 278C156.79 275.497 145.421 273.411 132.885 271.617C128.563 270.999 124.416 270.593 119.837 270.181C113.962 269.653 108.324 268.881 102.421 268.39C86.589 267.074 70.9315 265.261 54.7684 264.472C47.6131 264.122 40.9126 263.479 33.6084 263.479C31.4909 263.479 29.6085 263.16 27.5951 263.16C26.4551 263.16 23.5007 263.313 23 263" stroke="#174B62" stroke-width="2" stroke-linecap="round" stroke-linejoin="round"/>
</g>
<g style="mix-blend-mode:hard-light" filter="url(#filter7_d)">
<path d="M165 278C176.133 275.497 187.423 273.411 199.873 271.617C204.165 270.999 208.284 270.593 212.831 270.181C218.666 269.653 224.265 268.881 230.127 268.39C245.85 267.074 261.399 265.261 277.451 264.472C284.557 264.122 291.211 263.479 298.465 263.479C300.568 263.479 302.437 263.16 304.437 263.16C305.569 263.16 308.503 263.313 309 263" stroke="#174B62" stroke-width="2" stroke-linecap="round" stroke-linejoin="round"/>
</g>
<g style="mix-blend-mode:hard-light" filter="url(#filter8_d)">
<path d="M169 278C178.896 274.33 188.932 271.269 199.998 268.638C203.813 267.731 207.474 267.136 211.516 266.532C216.703 265.757 221.68 264.625 226.89 263.905C240.866 261.975 254.688 259.316 268.956 258.158C275.273 257.646 281.187 256.702 287.635 256.702C289.505 256.702 291.166 256.234 292.944 256.234C293.95 256.234 296.558 256.459 297 256" stroke="#174B62" stroke-width="2" stroke-linecap="round" stroke-linejoin="round"/>
</g>
<g style="mix-blend-mode:hard-light" filter="url(#filter9_d)">
<line x1="45" y1="1" x2="45" y2="252" stroke="#174B62" stroke-width="2"/>
</g>
<g style="mix-blend-mode:hard-light" filter="url(#filter10_d)">
<line y1="-1" x2="248.476" y2="-1" transform="matrix(0.0198714 0.999802 -0.999792 0.0203923 282.46 2.68997)" stroke="#174B62" stroke-width="2"/>
</g>
<g style="mix-blend-mode:hard-light" filter="url(#filter11_d)">
<path d="M45 21C41.8357 18.2627 38.8993 17 34.97 17C32.6467 17 30.3233 17 28 17" stroke="#174B62" stroke-width="2" stroke-linecap="round" stroke-linejoin="round"/>
</g>
<g style="mix-blend-mode:hard-light" filter="url(#filter12_d)">
<path d="M285 20C288.164 17.2627 291.101 16 295.03 16C297.353 16 299.677 16 302 16" stroke="#174B62" stroke-width="2" stroke-linecap="round" stroke-linejoin="round"/>
</g>
<g style="mix-blend-mode:hard-light" filter="url(#filter13_d)">
<line y1="-1" x2="240.068" y2="-1" transform="matrix(0.027796 0.999614 -0.999593 0.0285244 27.2195 17.8997)" stroke="#174B62" stroke-width="2"/>
</g>
<g style="mix-blend-mode:hard-light" filter="url(#filter14_d)">
<line y1="-1" x2="240.068" y2="-1" transform="matrix(-0.027796 0.999614 0.999593 0.0285244 304.147 16.2097)" stroke="#174B62" stroke-width="2"/>
</g>
<g style="mix-blend-mode:hard-light" filter="url(#filter15_d)">
<line y1="-1" x2="233.362" y2="-1" transform="matrix(0.0364722 0.999335 -0.999299 0.0374272 12.2054 29.7295)" stroke="#174B62" stroke-width="2"/>
</g>
<g style="mix-blend-mode:hard-light" filter="url(#filter16_d)">
<line y1="-1" x2="233.362" y2="-1" transform="matrix(-0.0364722 0.999335 0.999299 0.0374272 319.331 29.7295)" stroke="#174B62" stroke-width="2"/>
</g>
<g style="mix-blend-mode:hard-light" filter="url(#filter17_d)">
<path d="M12 28.9841C14.7035 27.7214 26.609 24.3404 28 31" stroke="#174B62" stroke-width="2" stroke-linecap="round" stroke-linejoin="round"/>
</g>
<g style="mix-blend-mode:hard-light" filter="url(#filter18_d)">
<path d="M318 28.9841C315.634 27.7214 305.217 24.3404 304 31" stroke="#174B62" stroke-width="2" stroke-linecap="round" stroke-linejoin="round"/>
</g>
<g style="mix-blend-mode:hard-light" filter="url(#filter19_d)">
<path d="M168 277L309.968 269.382L317.484 265.15L325 44.2321L317.484 40" stroke="#174B62" stroke-width="2"/>
</g>
<path d="M116.118 64.8883C113.522 64.5238 111.023 63.8227 108.52 63.1794C107.273 62.8589 105.549 63.0655 104.246 63.0655C102.355 63.0655 100.118 62.8252 98.3193 63.2934C93.0923 64.6541 87.3367 69.0878 90.6335 73.3061C93.2806 76.6932 97.1551 79.2628 101.89 81.1795C103.055 81.6513 103.57 81.9557 103.93 82.8884C104.222 83.6459 105 84.5781 105.038 85.3441C105.137 87.3502 104.96 88.9761 104.158 90.8631C103.513 92.3835 101.584 93.3489 100.131 94.3948C98.5899 95.5039 97.4454 95.8758 95.2942 95.8758C94.3093 95.8758 93.587 95.7149 92.6912 95.4201C91.7863 95.1224 90.4237 95.1848 89.6662 94.8378C88.835 94.4572 87.9587 94.4666 86.9928 94.5087C85.6922 94.5655 86.0431 96.3758 86.0431 97.0024C86.0431 101.183 92.0556 104.99 97.7565 104.99C99.7395 104.99 101.597 105.09 103.472 104.661C104.801 104.356 106.175 104.106 107.57 104.078C109.044 104.049 110.277 103.292 111.686 103.18C113.02 103.073 114.295 102.565 115.415 102.028C117.149 101.196 118.163 99.3031 119.108 98.0404C119.656 97.3077 119.226 96.3431 119.759 95.5341C120.452 94.4801 120.358 93.3638 120.62 92.2302C121.113 90.1018 122.687 87.7421 121.658 85.5213C120.668 83.3827 120.262 81.0639 118.352 79.2302C117.189 78.1142 115.516 76.7967 113.339 76.7365C111.652 76.6898 110.091 76.2247 108.661 75.8504C108.239 75.7399 107.697 75.858 107.254 75.8124C106.782 75.7639 106.579 75.4514 106.146 75.382C105.485 75.2764 104.705 75.0603 104.088 74.863C102.562 74.3749 100.975 73.8791 100.043 73.0403C99.0394 72.1375 99.9936 70.5694 100.922 69.901C102.234 68.9571 104.569 68.2333 106.48 68.8124C109.264 69.656 111.708 71.0058 114.693 71.4833C115.723 71.6479 118.363 71.7398 119.284 71.4453C120.778 70.9673 120.234 69.4261 120.234 68.4326C120.234 67.9468 120.399 67.2998 120.216 66.8377C120.198 66.7915 118.794 65.8119 118.651 65.7997C117.86 65.7328 118.105 65.0416 117.226 64.901C116.597 64.8003 115.813 64.8883 115.168 64.8883" stroke="black" stroke-linecap="round" stroke-linejoin="round"/>
<path d="M130.005 71.2629C130.005 73.9502 129.94 76.7186 130.272 79.3891C130.427 80.6304 130.726 81.6917 130.726 82.9718C130.726 85.3686 130.221 88.2373 130.846 90.5668C131.443 92.7889 131.558 95.1187 132.222 97.3027C132.888 99.4937 135.686 101.254 138.164 101.778C140.822 102.341 143.335 101.733 145.856 101.066C146.587 100.873 147.726 101 148.22 100.354C148.379 100.147 149.363 99.3582 149.662 99.3371C150.168 99.3015 149.956 98.354 149.956 98.0148C149.956 97.1481 150.101 96.612 149.355 95.9804C148.643 95.3779 146.271 94.6213 145.389 95.517C144.529 96.3909 141.648 96.0821 140.341 96.0821C138.581 96.0821 138.477 94.533 137.831 93.5166C137.34 92.746 137.668 91.9379 137.403 91.1545C137.103 90.2647 137.021 89.3712 136.682 88.5098C136.306 87.5541 136.495 86.4135 136.495 85.413C136.495 84.5498 136.114 83.7176 136.001 82.8588C135.783 81.2006 135.534 79.6726 135.534 77.9876C135.534 76.7831 135.633 75.2727 134.679 74.3145C133.903 73.5347 134.041 71.8535 133.237 71.1725C132.877 70.8678 131.704 71.0595 131.207 71.0595C130.469 71.0595 130.726 71.7948 130.726 72.2801" stroke="black" stroke-linecap="round" stroke-linejoin="round"/>
<path d="M156.558 101.066C156.558 95.6783 156.069 90.3382 156.069 84.9524C156.069 83.7072 156.069 82.4619 156.069 81.2167C156.069 79.9412 155.786 78.3704 156.367 77.1658C157.378 75.0733 157.577 72.2973 160.686 71.5397C163.4 70.8781 167.022 70.5123 169.322 72.3499C169.962 72.8612 170.548 73.4344 171.223 73.9139C171.765 74.2988 172.484 74.3812 172.88 74.9379C173.198 75.3864 173.423 75.1361 173.423 75.8493C173.423 76.4992 173.477 76.773 173.912 77.3234C174.584 78.1749 174.87 79.1151 175.433 80.0014C175.745 80.4932 176.063 81.1113 176.478 81.5317C177.016 82.0769 176.799 82.7106 177.198 83.1971C178.056 84.2423 178.73 85.477 179.099 86.7753C179.435 87.958 180.408 89.0884 180.511 90.286C180.73 92.8279 181 95.2906 181 97.87C181 99.1378 181 100.406 181 101.673C181 102.405 180.162 103.469 179.343 103.496C178.866 103.512 177.483 104.473 176.899 103.699C176.563 103.254 176.112 103.227 176.112 102.585C176.112 102.005 175.671 101.49 175.378 100.976C174.98 100.275 174.801 99.7927 174.292 99.1303C173.878 98.5914 173.33 97.7411 173.124 97.1274C172.68 95.8036 172.201 94.3608 172.201 92.964C172.201 91.6888 172.045 91.2641 170.979 90.331C170.238 89.6831 169.365 88.9132 168.236 88.9132C165.862 88.9132 163.646 91.0498 163.646 92.964C163.646 93.9617 163.646 94.9594 163.646 95.9571C163.646 96.6764 163.574 97.3434 163.279 98.0275C163.069 98.5151 162.668 98.8854 162.668 99.4003C162.668 100.216 161.851 101.306 161.147 101.831C160.877 102.032 160.428 102.183 160.102 102.393C159.759 102.615 159.501 103.115 159.138 103.249C158.566 103.459 156.802 103.471 156.802 102.889C156.802 102.078 156.802 101.268 156.802 100.458" stroke="black" stroke-linecap="round" stroke-linejoin="round"/>
<path d="M162.246 82.4551C162.86 81.5502 163.925 80.3785 164.183 79.3481C164.295 78.9031 164.626 78.4949 165.172 78.2469C166.36 77.7084 167.18 78.1046 167.8 78.9155C168.161 79.3862 168.694 79.5734 169.074 80.056C169.354 80.4117 169.905 80.7412 170.293 81.0393C171.293 81.8076 172 82.5443 172 83.6055C172 85.3882 167.782 85.1924 166.283 84.5002C165.139 83.9719 164.57 83.6939 163.1 83.6939C162.213 83.6939 161.972 83.7277 162.002 82.986C162.02 82.5452 162.403 82.0633 162.978 81.9242" stroke="black" stroke-linecap="round" stroke-linejoin="round"/>
<path d="M188 73.1986C188 76.5187 188.495 79.8383 188.495 83.1509C188.495 86.0565 188.495 88.962 188.495 91.8675C188.495 92.7796 188.743 93.6958 188.743 94.5708C188.743 95.2958 188.488 96.4733 188.866 97.1416C189.511 98.2802 189.055 100.96 190.847 101.599C193.274 102.465 194.464 101.912 195.481 100.099C196.162 98.8843 196.498 97.5471 196.966 96.281C197.865 93.845 197.036 90.6865 197.158 88.1382C197.215 86.9547 200.454 86.6571 201.394 86.1962C202.187 85.8074 202.706 85.7874 203.58 85.6997C204.156 85.642 204.839 85.1644 205.437 85.0046C206.802 84.6394 207.825 83.9572 209.273 83.7247C211.423 83.3797 213 82.4353 213 80.6463C213 78.932 211.644 77.1622 209.906 76.1777C208.819 75.562 207.86 75.0663 206.509 74.9861C205.402 74.9203 204.608 73.8252 203.649 73.7944C201.702 73.7319 199.836 72.6983 197.846 73.1545C196.934 73.3635 195.441 73 194.436 73C193.528 73 192.62 73 191.713 73C190.212 73 189.581 73.4378 188.248 73.7944" stroke="black" stroke-linecap="round" stroke-linejoin="round"/>
<path d="M195.77 77.0043C196.812 77.0043 197.854 77.0043 198.896 77.0043C200.138 77.0043 200.983 77.5706 202.107 77.6424C203.423 77.7267 206 77.6217 206 79.2378C206 80.6062 206.048 81.6315 204.778 82.582C203.802 83.3124 202.502 83.5948 201.268 83.8228C198.911 84.2585 195.898 83.9447 194.292 82.2747C193.817 81.7804 194.011 78.6689 194.25 77.9733C194.625 76.8793 196.139 77.0043 197.304 77.0043" stroke="black" stroke-linecap="round" stroke-linejoin="round"/>
<path d="M172.236 127.902C172.032 128.807 172 129.639 172 130.553C172 131.531 172.471 132.379 172.471 133.305C172.471 135.085 172.707 136.968 172.707 138.799C172.707 140.81 172.942 142.795 172.942 144.825C172.942 146.218 172.713 148.252 173.361 149.514C174.112 150.978 172.767 152.406 175.192 152.788C177.372 153.131 179.41 153.592 181.656 153.592C183.915 153.592 186.174 153.592 188.433 153.592C189.381 153.592 190.159 154 191.193 154C192.018 154 192.842 154 193.666 154C194.738 154 196.963 153.703 196.963 152.482C196.963 150.947 195.836 151.168 194.726 150.421C193.554 149.632 192.139 149.012 190.84 148.45C189.321 147.792 187.086 147.068 185.371 147.068C182.768 147.068 178.762 145.255 180.949 142.888C181.34 142.464 184.262 142.786 184.953 142.786C186.475 142.786 187.877 142.852 189.192 142.22C190.431 141.624 190.592 140.914 189.911 139.932C189.097 138.757 188.576 137.689 186.732 137.689C184.256 137.689 181.31 138.242 179.588 136.42C178.79 135.575 181.027 134.27 181.525 133.917C182.616 133.144 183.726 132.795 185.188 132.795C188.711 132.795 192.268 132.707 195.733 132.591C196.451 132.568 198.518 131.838 197.879 130.87C197.574 130.408 196.529 130.349 196.021 130.349C195.289 130.349 195.172 129.676 194.49 129.544C194.049 129.46 193.487 129.064 193.064 128.831C192.507 128.524 191.479 128.748 190.84 128.718C189.371 128.647 187.997 127.927 186.653 127.54C183.999 126.773 180.688 127.086 177.888 127.086C176.166 127.086 172.471 126.473 172.471 128.514" stroke="black" stroke-linecap="round" stroke-linejoin="round"/>
<path d="M209 151.347C209.11 147.52 209.241 143.694 209.241 139.855C209.241 138.106 209.241 136.356 209.241 134.607C209.241 133.761 209.039 132.739 209.482 131.956C209.942 131.143 210.236 130.104 210.433 129.229C210.678 128.14 212.419 127 213.821 127C214.914 127 217.318 129.007 217.437 129.922C217.608 131.236 219.174 131.895 219.847 132.951C220.461 133.914 220.865 134.943 221.829 135.722C222.118 135.955 222.79 136.544 223.222 136.544C223.625 136.544 224.61 134.673 224.655 134.293C224.804 133.029 225.778 132.397 226.476 131.382C226.854 130.833 227.386 130.448 227.748 129.922C228.167 129.313 228.979 129.417 229.369 128.85C230.092 127.798 231.867 127.779 233.225 127.779C234.026 127.779 234.58 130.314 234.913 130.798C235.318 131.387 235.228 132.067 235.569 132.648C235.837 133.106 236.239 133.561 236.239 134.109C236.239 135.223 236.914 136.405 237.671 137.323C237.988 137.706 238.117 138.801 237.872 139.271C237.523 139.942 237.828 140.633 237.671 141.327C237.38 142.622 237.203 143.821 237.203 145.157C237.203 146.821 236.738 148.47 236.292 150.092C236.177 150.509 236.29 150.937 236.225 151.358C236.15 151.843 235.604 152.019 235.529 152.505C235.44 153.081 235.116 153.507 234.846 154.03C234.403 154.89 233.683 153.553 233.6 153.186C233.425 152.408 233.374 151.349 233.346 150.568C233.292 149.092 231.953 147.786 231.418 146.38C230.774 144.691 230.694 143.381 230.694 141.608C230.694 140.636 230.471 139.017 228.632 139.963C227.915 140.332 226.927 140.639 226.409 141.219C226.128 141.533 224.739 142.506 224.293 142.571C222.544 142.828 221.246 142.808 220.088 141.457C219.239 140.465 218.855 139.445 217.437 138.838C216.791 138.562 216.636 138.102 215.87 138.102C214.931 138.102 214.62 138.961 214.062 139.466C212.772 140.63 212.857 141.692 212.857 143.166C212.857 145.035 212.857 146.903 212.857 148.771C212.857 150.387 212.818 152.305 212.187 153.836C211.591 155.282 210.664 155.31 209.429 154.312C208.846 153.841 209.131 151.524 209.482 150.957" stroke="black" stroke-linecap="round" stroke-linejoin="round"/>
<path d="M97.3891 174.505C97.3891 180.035 97.0987 185.548 98.1608 191.02C98.7723 194.17 97.5715 197.972 99.2103 200.941C101.298 204.723 97.4227 211.64 104.551 212.991C106.159 213.296 107.621 213.666 109.273 213.872C111.335 214.128 113.608 213.921 115.694 213.921C117.769 213.921 120.181 214.204 122.115 213.48C123.735 212.874 126.063 212.02 127.27 210.936C128.955 209.422 131.489 208.733 131.854 206.422C131.972 205.669 132.564 205.156 132.81 204.452C133.129 203.542 132.949 202.481 132.949 201.541C132.949 199.685 132.961 198.497 131.699 196.941C129.932 194.762 127.4 193.606 124.337 193.051C123.664 192.929 115.146 192.706 115.015 193.051C114.167 195.29 122.445 193.191 123.504 192.892C124.643 192.569 126.347 192.447 126.899 191.411C127.253 190.749 127.906 190.15 128.443 189.576C129.129 188.844 129.376 188.051 129.909 187.277C130.767 186.029 131.804 183.845 131.838 182.432C131.865 181.324 131.838 180.213 131.838 179.105C131.838 177.68 131.088 176.389 130.665 175.019C130.196 173.497 128.045 170.809 126.266 170.015C124.113 169.055 121.612 169 119.182 169C117.098 169 115.015 169 112.931 169C110.896 169 109.876 169.801 108.07 170.321C106.711 170.713 105.408 170.964 104.057 171.471C103.285 171.761 101.649 172.395 100.846 172.511C99.692 172.677 99.2356 173.395 98.3769 173.795C97.6132 174.151 96.2911 174.914 96 175.606" stroke="black" stroke-linecap="round" stroke-linejoin="round"/>
<path d="M108.264 186.123C108.285 184.853 108.861 180.844 110.113 180.096C111.642 179.183 112.564 179.024 114.354 179.024C116.125 179.024 118.218 178.78 119.725 179.86C120.964 180.748 122 182.601 122 184.135C122 186.197 120.564 185.624 119.358 186.343C117.933 187.195 116.442 186.974 114.736 186.974C112.453 186.974 110.16 186.69 108 186.69" stroke="black" stroke-linecap="round" stroke-linejoin="round"/>
<path d="M109 203.313C110.305 202.07 110.965 200.456 113.015 199.763C114.876 199.134 117.644 198.795 119.696 199.134C120.641 199.29 121.795 199.196 122.42 199.816C122.875 200.267 123.599 200.764 124.212 201.106C125.63 201.897 124.83 203.639 124.169 204.571C123.312 205.782 120.677 205.808 119.065 205.808C117.503 205.808 115.8 206 114.162 206C113.368 206 112.575 206 111.782 206C110.987 206 110.423 205.576 109.66 205.414C109.316 205.341 109 204.626 109 204.358C109 203.461 109.067 202.804 109.516 201.97" stroke="black" stroke-linecap="round" stroke-linejoin="round"/>
<path d="M145.078 178C143.488 179.323 142.192 180.506 140.872 182.011C139.12 184.009 138.644 186.555 137.795 188.839C137.08 190.764 137 192.894 137 194.899C137 195.971 137.387 196.895 137.641 197.928C137.879 198.896 137.905 199.975 138.616 200.82C139.866 202.306 140.879 203.412 142.654 204.5C143.893 205.26 145.387 206.39 146.975 206.421C148.648 206.453 150.084 207.05 151.822 206.997C152.435 206.978 153.209 206.566 153.797 206.378C154.61 206.117 154.982 205.389 155.592 205.002C157.082 204.053 157.621 202.15 157.887 200.649C158.276 198.445 158.647 196.35 158.912 194.141C159.102 192.567 158.925 190.913 158.925 189.33C158.925 187.84 158.393 186.793 157.951 185.404C157.478 183.918 156.486 183.273 155.181 182.267C154.144 181.468 152.798 180.529 151.54 180.006C149.582 179.191 147.196 178.192 145.078 178.192" stroke="black" stroke-linecap="round" stroke-linejoin="round"/>
<path d="M144.498 200.518C144.498 199.145 144.413 198.015 144.078 196.691C143.962 196.234 144.091 195.776 143.894 195.33C143.698 194.888 143.187 194.425 143.093 193.97C142.78 192.461 143.34 191.114 143.566 189.727C143.745 188.627 145.619 187.029 146.758 187.029C147.594 187.029 148.652 186.847 149.28 187.398C149.926 187.965 149.603 188.701 149.713 189.427C150.18 192.498 149.937 195.703 149.937 198.812C149.937 200.284 149.17 200.933 147.572 200.933C146.485 200.933 144.735 201.349 144.735 200.103" stroke="black" stroke-linecap="round" stroke-linejoin="round"/>
<path d="M166.734 205.209C166.734 200.619 163.457 196.102 162.266 191.669C161.473 188.716 162.484 185.314 164.875 183.053C165.94 182.045 167.06 180.706 168.645 180.239C170.221 179.775 172.388 180.058 173.94 180.481C176.817 181.267 180.658 183.563 182.075 185.91C182.617 186.809 183.186 187.814 183.65 188.746C184.119 189.686 184.058 190.831 184.528 191.746C186.065 194.735 183.475 197.188 182.088 199.747C181.127 201.518 179.679 203.871 177.529 204.725C175.181 205.658 172.681 206 170.117 206C169.399 206 168.418 205.287 168.013 205.011C167.686 204.789 166.104 203.795 166.967 203.428" stroke="black" stroke-linecap="round" stroke-linejoin="round"/>
<path d="M173.772 199.267C172.615 196.773 172 193.943 172 191.2C172 190.13 172.177 189 173.379 189C174.138 189 175.384 189.178 175.762 189.917C176.2 190.773 175.899 192.386 175.899 193.359C175.899 194.337 175.899 195.315 175.899 196.293C175.899 196.734 175.899 197.175 175.899 197.617C175.899 198.17 175.616 198.231 175.407 198.717C175.22 199.152 174.655 200 174.127 200" stroke="black" stroke-linecap="round" stroke-linejoin="round"/>
<path d="M204.044 203.02C203.482 205.422 203.176 207.194 201.056 208.865C198.68 210.736 196.191 207.316 196.191 205.501C196.191 204.439 196.191 203.376 196.191 202.314C196.191 201.671 196.21 200.11 195.834 199.546C195.366 198.843 195.239 197.531 195.239 196.756C195.239 196.191 194.981 195.859 195.001 195.278C195.031 194.392 195.239 193.525 195.239 192.609C195.239 189.859 195.396 186.822 196.482 184.205C196.721 183.63 197.143 183.115 197.143 182.485C197.143 181.872 197.162 181.396 197.434 180.831C197.522 180.647 198.161 179.225 198.227 179.21C198.85 179.061 199.334 179 199.998 179C203.516 179 203.568 181.976 203.568 184.272C203.568 185.114 203.072 186.238 203.343 187.029C203.462 187.377 202.637 186.854 202.616 187.426C202.594 188.042 202.616 188.662 202.616 189.278C202.616 190.361 203.05 190.872 203.912 189.874C205.063 188.54 205.619 187.016 207.084 185.793C207.658 185.315 208.819 184.757 209.636 184.757C210.736 184.757 211.763 184.164 212.848 184.007C214.586 183.756 216.859 183.197 218.56 183.764C219.93 184.221 217.708 186.159 217.251 186.455C216.449 186.975 214.963 187.81 213.919 187.944C212.605 188.113 211.001 189.635 210.006 190.326C208.751 191.198 208.921 193.089 207.851 194.087C207.008 194.873 207.793 196.093 208.327 196.711C208.743 197.193 209.322 197.809 209.874 198.167C210.281 198.431 210.673 199.504 210.945 199.932C211.438 200.708 211.77 201.751 212.386 202.435C213.143 203.277 212.76 204.136 213.324 204.961C214.112 206.11 214.514 207.572 214.514 208.887C214.514 211.489 209.495 208.766 208.221 208.379C207.315 208.104 205.698 206.7 205.485 205.898C205.264 205.07 204.52 204.717 204.52 203.814" stroke="black" stroke-linecap="round" stroke-linejoin="round"/>
<path d="M246.391 181.18C240.972 180.356 227.378 177.832 225.536 184.292C224.885 186.573 223.823 190.275 228.301 190.275C231.657 190.275 234.832 190.045 236.561 192.402C238.64 195.237 235.727 204.002 230.553 204.157C227.884 204.237 223.044 201.978 223.044 204.742C223.044 206.135 222.945 207.553 223.044 208.944C223.152 210.455 226.719 209.901 227.959 209.901C231.708 209.901 235.176 208.572 238.711 207.96C242.68 207.272 243.762 204.876 245.469 202.481C246.734 200.708 249.428 197.314 246.732 195.514C244.485 194.013 244.878 190.754 241.169 190.754C238.052 190.754 238.358 188.504 235.946 187.509C234.795 187.035 234.338 186.299 235.468 185.595C236.827 184.748 238.154 185.943 239.018 186.339C241.598 187.521 243.954 187.543 247.005 187.403C250.201 187.256 244.685 183.308 244.548 183.095" stroke="black" stroke-linecap="round" stroke-linejoin="round"/>
<path d="M127.041 122.814C127.041 125.803 126.866 128.853 127.238 131.825C127.449 133.505 127.923 135.186 128.251 136.849C128.57 138.463 128.722 140.093 129.013 141.698C129.293 143.238 129.525 144.853 129.623 146.379C129.645 146.717 130.03 146.934 130.098 147.242C130.189 147.651 130.143 148.182 130.358 148.558C130.802 149.334 130.689 150.239 131.147 150.987C131.456 151.49 131.627 152.08 131.846 152.596C131.968 152.883 132.462 153.843 132.779 153.89C134.42 154.134 136.03 153.898 137.691 153.883C140.325 153.858 142.968 153.422 145.527 152.888C148.716 152.223 152.065 151.225 154.796 149.699C157.304 148.298 159.991 147.103 161.403 144.799C162.812 142.501 163.293 139.27 162.828 136.71C162.646 135.706 162.374 134.768 162.058 133.799C161.767 132.912 161.024 132.173 160.731 131.313C160.606 130.946 160.43 130.585 160.211 130.252C159.948 129.854 160.031 129.377 159.709 128.994C159.424 128.656 159.164 128.251 158.83 127.948C158.485 127.635 158.188 127.523 157.826 127.261C157.031 126.684 155.815 126.241 155.191 125.593C154.636 125.017 153.496 124.841 152.788 124.423C152.003 123.961 150.93 123.814 150.036 123.545C149.305 123.326 148.337 123.219 147.597 123.085C146.859 122.951 146.038 122.967 145.311 122.785C144.977 122.701 144.696 122.501 144.37 122.419C143.809 122.278 143.238 122.346 142.685 122.214C140.813 121.769 138.806 122.156 136.893 122.156C135.145 122.156 133.397 122.156 131.649 122.156C130.974 122.156 130.298 122.156 129.623 122.156C128.992 122.156 127.687 121.908 127.687 122.551" stroke="black" stroke-linecap="round" stroke-linejoin="round"/>
<path d="M136 130.359C136 132.492 136.916 134.529 136.916 136.638C136.916 138.117 137.221 139.567 137.221 141.023C137.221 141.973 137.858 142.937 138.138 143.808C138.47 144.844 138.83 145.765 139.732 146.526C140.653 147.302 142.576 146.929 143.668 146.767C145.005 146.569 146.7 146.205 147.833 145.507C148.248 145.251 148.809 144.91 149.249 144.729C149.59 144.589 149.995 143.884 150.284 143.612C151.047 142.895 151.217 141.691 151.641 140.827C152.348 139.389 151.86 137.271 151.455 135.868C151.142 134.787 150.521 134.085 150.013 133.106C149.802 132.699 149.066 132.358 148.74 131.989C148.319 131.512 147.189 130.832 146.535 130.638C145.532 130.341 144.632 129.812 143.634 129.559C143.262 129.464 142.655 129.295 142.294 129.272C141.771 129.239 141.393 129 140.852 129C139.872 129 139.231 128.986 138.358 129.34C138.041 129.468 137.513 129.455 137.255 129.71C137.083 129.88 136.708 129.915 136.611 130.087" stroke="black" stroke-linecap="round" stroke-linejoin="round"/>
<g style="mix-blend-mode:hard-light" filter="url(#filter20_d)">
<path d="M166 277L21.3191 269.479L13.6596 265.3L6 47.1786L13.6596 43" stroke="#174B62" stroke-width="2"/>
</g>
<defs>
<filter id="filter0_d" x="160" y="42.9658" width="13.9997" height="242.034" filterUnits="userSpaceOnUse" color-interpolation-filters="sRGB">
<feFlood flood-opacity="0" result="BackgroundImageFix"/>
<feColorMatrix in="SourceAlpha" type="matrix" values="0 0 0 0 0 0 0 0 0 0 0 0 0 0 0 0 0 0 127 0"/>
<feOffset dy="4"/>
<feGaussianBlur stdDeviation="2"/>
<feColorMatrix type="matrix" values="0 0 0 0 0 0 0 0 0 0 0 0 0 0 0 0 0 0 0.25 0"/>
<feBlend mode="normal" in2="BackgroundImageFix" result="effect1_dropShadow"/>
<feBlend mode="normal" in="SourceGraphic" in2="effect1_dropShadow" result="shape"/>
</filter>
<filter id="filter1_d" x="40.9998" y="-0.000228882" width="129" height="50.0003" filterUnits="userSpaceOnUse" color-interpolation-filters="sRGB">
<feFlood flood-opacity="0" result="BackgroundImageFix"/>
<feColorMatrix in="SourceAlpha" type="matrix" values="0 0 0 0 0 0 0 0 0 0 0 0 0 0 0 0 0 0 127 0"/>
<feOffset dy="4"/>
<feGaussianBlur stdDeviation="2"/>
<feColorMatrix type="matrix" values="0 0 0 0 0 0 0 0 0 0 0 0 0 0 0 0 0 0 0.25 0"/>
<feBlend mode="normal" in2="BackgroundImageFix" result="effect1_dropShadow"/>
<feBlend mode="normal" in="SourceGraphic" in2="effect1_dropShadow" result="shape"/>
</filter>
<filter id="filter2_d" x="160" y="0.999771" width="130" height="51.0003" filterUnits="userSpaceOnUse" color-interpolation-filters="sRGB">
<feFlood flood-opacity="0" result="BackgroundImageFix"/>
<feColorMatrix in="SourceAlpha" type="matrix" values="0 0 0 0 0 0 0 0 0 0 0 0 0 0 0 0 0 0 127 0"/>
<feOffset dy="4"/>
<feGaussianBlur stdDeviation="2"/>
<feColorMatrix type="matrix" values="0 0 0 0 0 0 0 0 0 0 0 0 0 0 0 0 0 0 0.25 0"/>
<feBlend mode="normal" in2="BackgroundImageFix" result="effect1_dropShadow"/>
<feBlend mode="normal" in="SourceGraphic" in2="effect1_dropShadow" result="shape"/>
</filter>
<filter id="filter3_d" x="164" y="251" width="128" height="35.0003" filterUnits="userSpaceOnUse" color-interpolation-filters="sRGB">
<feFlood flood-opacity="0" result="BackgroundImageFix"/>
<feColorMatrix in="SourceAlpha" type="matrix" values="0 0 0 0 0 0 0 0 0 0 0 0 0 0 0 0 0 0 127 0"/>
<feOffset dy="4"/>
<feGaussianBlur stdDeviation="2"/>
<feColorMatrix type="matrix" values="0 0 0 0 0 0 0 0 0 0 0 0 0 0 0 0 0 0 0.25 0"/>
<feBlend mode="normal" in2="BackgroundImageFix" result="effect1_dropShadow"/>
<feBlend mode="normal" in="SourceGraphic" in2="effect1_dropShadow" result="shape"/>
</filter>
<filter id="filter4_d" x="40" y="251" width="134" height="35.0003" filterUnits="userSpaceOnUse" color-interpolation-filters="sRGB">
<feFlood flood-opacity="0" result="BackgroundImageFix"/>
<feColorMatrix in="SourceAlpha" type="matrix" values="0 0 0 0 0 0 0 0 0 0 0 0 0 0 0 0 0 0 127 0"/>
<feOffset dy="4"/>
<feGaussianBlur stdDeviation="2"/>
<feColorMatrix type="matrix" values="0 0 0 0 0 0 0 0 0 0 0 0 0 0 0 0 0 0 0.25 0"/>
<feBlend mode="normal" in2="BackgroundImageFix" result="effect1_dropShadow"/>
<feBlend mode="normal" in="SourceGraphic" in2="effect1_dropShadow" result="shape"/>
</filter>
<filter id="filter5_d" x="28" y="256" width="145" height="30.0003" filterUnits="userSpaceOnUse" color-interpolation-filters="sRGB">
<feFlood flood-opacity="0" result="BackgroundImageFix"/>
<feColorMatrix in="SourceAlpha" type="matrix" values="0 0 0 0 0 0 0 0 0 0 0 0 0 0 0 0 0 0 127 0"/>
<feOffset dy="4"/>
<feGaussianBlur stdDeviation="2"/>
<feColorMatrix type="matrix" values="0 0 0 0 0 0 0 0 0 0 0 0 0 0 0 0 0 0 0.25 0"/>
<feBlend mode="normal" in2="BackgroundImageFix" result="effect1_dropShadow"/>
<feBlend mode="normal" in="SourceGraphic" in2="effect1_dropShadow" result="shape"/>
</filter>
<filter id="filter6_d" x="17.9999" y="262" width="155" height="25.0003" filterUnits="userSpaceOnUse" color-interpolation-filters="sRGB">
<feFlood flood-opacity="0" result="BackgroundImageFix"/>
<feColorMatrix in="SourceAlpha" type="matrix" values="0 0 0 0 0 0 0 0 0 0 0 0 0 0 0 0 0 0 127 0"/>
<feOffset dy="4"/>
<feGaussianBlur stdDeviation="2"/>
<feColorMatrix type="matrix" values="0 0 0 0 0 0 0 0 0 0 0 0 0 0 0 0 0 0 0.25 0"/>
<feBlend mode="normal" in2="BackgroundImageFix" result="effect1_dropShadow"/>
<feBlend mode="normal" in="SourceGraphic" in2="effect1_dropShadow" result="shape"/>
</filter>
<filter id="filter7_d" x="160" y="262" width="154" height="25.0003" filterUnits="userSpaceOnUse" color-interpolation-filters="sRGB">
<feFlood flood-opacity="0" result="BackgroundImageFix"/>
<feColorMatrix in="SourceAlpha" type="matrix" values="0 0 0 0 0 0 0 0 0 0 0 0 0 0 0 0 0 0 127 0"/>
<feOffset dy="4"/>
<feGaussianBlur stdDeviation="2"/>
<feColorMatrix type="matrix" values="0 0 0 0 0 0 0 0 0 0 0 0 0 0 0 0 0 0 0.25 0"/>
<feBlend mode="normal" in2="BackgroundImageFix" result="effect1_dropShadow"/>
<feBlend mode="normal" in="SourceGraphic" in2="effect1_dropShadow" result="shape"/>
</filter>
<filter id="filter8_d" x="164" y="255" width="138" height="32.0003" filterUnits="userSpaceOnUse" color-interpolation-filters="sRGB">
<feFlood flood-opacity="0" result="BackgroundImageFix"/>
<feColorMatrix in="SourceAlpha" type="matrix" values="0 0 0 0 0 0 0 0 0 0 0 0 0 0 0 0 0 0 127 0"/>
<feOffset dy="4"/>
<feGaussianBlur stdDeviation="2"/>
<feColorMatrix type="matrix" values="0 0 0 0 0 0 0 0 0 0 0 0 0 0 0 0 0 0 0.25 0"/>
<feBlend mode="normal" in2="BackgroundImageFix" result="effect1_dropShadow"/>
<feBlend mode="normal" in="SourceGraphic" in2="effect1_dropShadow" result="shape"/>
</filter>
<filter id="filter9_d" x="40" y="1" width="10" height="259" filterUnits="userSpaceOnUse" color-interpolation-filters="sRGB">
<feFlood flood-opacity="0" result="BackgroundImageFix"/>
<feColorMatrix in="SourceAlpha" type="matrix" values="0 0 0 0 0 0 0 0 0 0 0 0 0 0 0 0 0 0 127 0"/>
<feOffset dy="4"/>
<feGaussianBlur stdDeviation="2"/>
<feColorMatrix type="matrix" values="0 0 0 0 0 0 0 0 0 0 0 0 0 0 0 0 0 0 0.25 0"/>
<feBlend mode="normal" in2="BackgroundImageFix" result="effect1_dropShadow"/>
<feBlend mode="normal" in="SourceGraphic" in2="effect1_dropShadow" result="shape"/>
</filter>
<filter id="filter10_d" x="278.46" y="2.64919" width="14.9371" height="256.468" filterUnits="userSpaceOnUse" color-interpolation-filters="sRGB">
<feFlood flood-opacity="0" result="BackgroundImageFix"/>
<feColorMatrix in="SourceAlpha" type="matrix" values="0 0 0 0 0 0 0 0 0 0 0 0 0 0 0 0 0 0 127 0"/>
<feOffset dy="4"/>
<feGaussianBlur stdDeviation="2"/>
<feColorMatrix type="matrix" values="0 0 0 0 0 0 0 0 0 0 0 0 0 0 0 0 0 0 0.25 0"/>
<feBlend mode="normal" in2="BackgroundImageFix" result="effect1_dropShadow"/>
<feBlend mode="normal" in="SourceGraphic" in2="effect1_dropShadow" result="shape"/>
</filter>
<filter id="filter11_d" x="23" y="16" width="27" height="14" filterUnits="userSpaceOnUse" color-interpolation-filters="sRGB">
<feFlood flood-opacity="0" result="BackgroundImageFix"/>
<feColorMatrix in="SourceAlpha" type="matrix" values="0 0 0 0 0 0 0 0 0 0 0 0 0 0 0 0 0 0 127 0"/>
<feOffset dy="4"/>
<feGaussianBlur stdDeviation="2"/>
<feColorMatrix type="matrix" values="0 0 0 0 0 0 0 0 0 0 0 0 0 0 0 0 0 0 0.25 0"/>
<feBlend mode="normal" in2="BackgroundImageFix" result="effect1_dropShadow"/>
<feBlend mode="normal" in="SourceGraphic" in2="effect1_dropShadow" result="shape"/>
</filter>
<filter id="filter12_d" x="280" y="15" width="27" height="14" filterUnits="userSpaceOnUse" color-interpolation-filters="sRGB">
<feFlood flood-opacity="0" result="BackgroundImageFix"/>
<feColorMatrix in="SourceAlpha" type="matrix" values="0 0 0 0 0 0 0 0 0 0 0 0 0 0 0 0 0 0 127 0"/>
<feOffset dy="4"/>
<feGaussianBlur stdDeviation="2"/>
<feColorMatrix type="matrix" values="0 0 0 0 0 0 0 0 0 0 0 0 0 0 0 0 0 0 0.25 0"/>
<feBlend mode="normal" in2="BackgroundImageFix" result="effect1_dropShadow"/>
<feBlend mode="normal" in="SourceGraphic" in2="effect1_dropShadow" result="shape"/>
</filter>
<filter id="filter13_d" x="23.2195" y="17.8427" width="16.6721" height="248.033" filterUnits="userSpaceOnUse" color-interpolation-filters="sRGB">
<feFlood flood-opacity="0" result="BackgroundImageFix"/>
<feColorMatrix in="SourceAlpha" type="matrix" values="0 0 0 0 0 0 0 0 0 0 0 0 0 0 0 0 0 0 127 0"/>
<feOffset dy="4"/>
<feGaussianBlur stdDeviation="2"/>
<feColorMatrix type="matrix" values="0 0 0 0 0 0 0 0 0 0 0 0 0 0 0 0 0 0 0.25 0"/>
<feBlend mode="normal" in2="BackgroundImageFix" result="effect1_dropShadow"/>
<feBlend mode="normal" in="SourceGraphic" in2="effect1_dropShadow" result="shape"/>
</filter>
<filter id="filter14_d" x="291.475" y="16.1527" width="16.6721" height="248.033" filterUnits="userSpaceOnUse" color-interpolation-filters="sRGB">
<feFlood flood-opacity="0" result="BackgroundImageFix"/>
<feColorMatrix in="SourceAlpha" type="matrix" values="0 0 0 0 0 0 0 0 0 0 0 0 0 0 0 0 0 0 127 0"/>
<feOffset dy="4"/>
<feGaussianBlur stdDeviation="2"/>
<feColorMatrix type="matrix" values="0 0 0 0 0 0 0 0 0 0 0 0 0 0 0 0 0 0 0.25 0"/>
<feBlend mode="normal" in2="BackgroundImageFix" result="effect1_dropShadow"/>
<feBlend mode="normal" in="SourceGraphic" in2="effect1_dropShadow" result="shape"/>
</filter>
<filter id="filter15_d" x="8.20535" y="29.6546" width="18.5098" height="241.282" filterUnits="userSpaceOnUse" color-interpolation-filters="sRGB">
<feFlood flood-opacity="0" result="BackgroundImageFix"/>
<feColorMatrix in="SourceAlpha" type="matrix" values="0 0 0 0 0 0 0 0 0 0 0 0 0 0 0 0 0 0 127 0"/>
<feOffset dy="4"/>
<feGaussianBlur stdDeviation="2"/>
<feColorMatrix type="matrix" values="0 0 0 0 0 0 0 0 0 0 0 0 0 0 0 0 0 0 0.25 0"/>
<feBlend mode="normal" in2="BackgroundImageFix" result="effect1_dropShadow"/>
<feBlend mode="normal" in="SourceGraphic" in2="effect1_dropShadow" result="shape"/>
</filter>
<filter id="filter16_d" x="304.821" y="29.6546" width="18.5098" height="241.282" filterUnits="userSpaceOnUse" color-interpolation-filters="sRGB">
<feFlood flood-opacity="0" result="BackgroundImageFix"/>
<feColorMatrix in="SourceAlpha" type="matrix" values="0 0 0 0 0 0 0 0 0 0 0 0 0 0 0 0 0 0 127 0"/>
<feOffset dy="4"/>
<feGaussianBlur stdDeviation="2"/>
<feColorMatrix type="matrix" values="0 0 0 0 0 0 0 0 0 0 0 0 0 0 0 0 0 0 0.25 0"/>
<feBlend mode="normal" in2="BackgroundImageFix" result="effect1_dropShadow"/>
<feBlend mode="normal" in="SourceGraphic" in2="effect1_dropShadow" result="shape"/>
</filter>
<filter id="filter17_d" x="6.99976" y="26" width="26.0004" height="14.0002" filterUnits="userSpaceOnUse" color-interpolation-filters="sRGB">
<feFlood flood-opacity="0" result="BackgroundImageFix"/>
<feColorMatrix in="SourceAlpha" type="matrix" values="0 0 0 0 0 0 0 0 0 0 0 0 0 0 0 0 0 0 127 0"/>
<feOffset dy="4"/>
<feGaussianBlur stdDeviation="2"/>
<feColorMatrix type="matrix" values="0 0 0 0 0 0 0 0 0 0 0 0 0 0 0 0 0 0 0.25 0"/>
<feBlend mode="normal" in2="BackgroundImageFix" result="effect1_dropShadow"/>
<feBlend mode="normal" in="SourceGraphic" in2="effect1_dropShadow" result="shape"/>
</filter>
<filter id="filter18_d" x="299" y="26" width="24.0004" height="14.0002" filterUnits="userSpaceOnUse" color-interpolation-filters="sRGB">
<feFlood flood-opacity="0" result="BackgroundImageFix"/>
<feColorMatrix in="SourceAlpha" type="matrix" values="0 0 0 0 0 0 0 0 0 0 0 0 0 0 0 0 0 0 127 0"/>
<feOffset dy="4"/>
<feGaussianBlur stdDeviation="2"/>
<feColorMatrix type="matrix" values="0 0 0 0 0 0 0 0 0 0 0 0 0 0 0 0 0 0 0.25 0"/>
<feBlend mode="normal" in2="BackgroundImageFix" result="effect1_dropShadow"/>
<feBlend mode="normal" in="SourceGraphic" in2="effect1_dropShadow" result="shape"/>
</filter>
<filter id="filter19_d" x="163.946" y="39.1286" width="166.074" height="246.87" filterUnits="userSpaceOnUse" color-interpolation-filters="sRGB">
<feFlood flood-opacity="0" result="BackgroundImageFix"/>
<feColorMatrix in="SourceAlpha" type="matrix" values="0 0 0 0 0 0 0 0 0 0 0 0 0 0 0 0 0 0 127 0"/>
<feOffset dy="4"/>
<feGaussianBlur stdDeviation="2"/>
<feColorMatrix type="matrix" values="0 0 0 0 0 0 0 0 0 0 0 0 0 0 0 0 0 0 0.25 0"/>
<feBlend mode="normal" in2="BackgroundImageFix" result="effect1_dropShadow"/>
<feBlend mode="normal" in="SourceGraphic" in2="effect1_dropShadow" result="shape"/>
</filter>
<filter id="filter20_d" x="0.978943" y="42.1221" width="169.073" height="243.877" filterUnits="userSpaceOnUse" color-interpolation-filters="sRGB">
<feFlood flood-opacity="0" result="BackgroundImageFix"/>
<feColorMatrix in="SourceAlpha" type="matrix" values="0 0 0 0 0 0 0 0 0 0 0 0 0 0 0 0 0 0 127 0"/>
<feOffset dy="4"/>
<feGaussianBlur stdDeviation="2"/>
<feColorMatrix type="matrix" values="0 0 0 0 0 0 0 0 0 0 0 0 0 0 0 0 0 0 0.25 0"/>
<feBlend mode="normal" in2="BackgroundImageFix" result="effect1_dropShadow"/>
<feBlend mode="normal" in="SourceGraphic" in2="effect1_dropShadow" result="shape"/>
</filter>
</defs>
</svg>
